# xmcd CD database file
#
# Track frame offsets:
#	150
#	19732
#	33880
#	46257
#	61055
#	67797
#	79212
#	96267
#	104665
#	109857
#	127425
#	141577
#	150657
#	161615
#	166297
#	169250
#	172810
#	178167
#	181692
#	184105
#	187357
#	199742
#	215945
#	224710
#	230757
#	241347
#	267230
#	281672
#	289420
#	297500
#	308460
#	316455
#	328077
#
# Disc length: 4446 seconds
#
# Revision: 1
# Processed by: cddbd v1.5.1PL2 Copyright (c) Steve Scherf et al.
# Submitted via: CDex 1.51
#
DISCID=07115c21
DTITLE=Haydn - Divertimenti für Bläser - Consortium Classicum - CD 2
DYEAR=1900
DGENRE=Wind
TTITLE0=Parthia in Eb -I- Allegro spirituoso
TTITLE1=Parthia in Eb -II- Menuetto
TTITLE2=Parthia in Eb -III- Rondo moderato
TTITLE3=Parthia in Eb -IV- Presto assai
TTITLE4=Divertimento in C -I- Allegro
TTITLE5=Divertimento in C -II- Menuet
TTITLE6=Divertimento in C -III- Adagio
TTITLE7=Divertimento in C -IV- Menuet
TTITLE8=Divertimento in C -V- Presto
TTITLE9=Parthia in Eb Es16 -I- Allegro assai
TTITLE10=Parthia in Eb Es16 -II- Romanze: Andante
TTITLE11=Parthia in Eb Es16 -III- Menuett: Allegretto
TTITLE12=Parthia in Eb Es16 -IV- Rondo: Allegretto
TTITLE13=12 Notturnos No.6 - Grazioso
TTITLE14=12 Notturnos No.7 - Kanon
TTITLE15=12 Notturnos No.8 - Allegretto
TTITLE16=12 Notturnos No.9 - Menuet
TTITLE17=12 Notturnos No.10 - Grazioso
TTITLE18=12 Notturnos No.11 - Allegretto
TTITLE19=12 Notturnos No.12 - Allegretto
TTITLE20=Feldparthie in F -I- Marche con spirito
TTITLE21=Feldparthie in F -II- Adagio più Andante
TTITLE22=Feldparthie in F -III- Minuetto
TTITLE23=Feldparthie in F -IV- Scherzo
TTITLE24=Suite in Eb Es17 -I- Allegro assai
TTITLE25=Suite in Eb Es17 -II- Romance
TTITLE26=Suite in Eb Es17 -III- Menuetto: Allegro
TTITLE27=Suite in Eb Es17 -IV- Finale
TTITLE28=Divertimento in F -I- Allegro
TTITLE29=Divertimento in F -II- Menuet
TTITLE30=Divertimento in F -III- Adagio
TTITLE31=Divertimento in F -III- Menuet
TTITLE32=Divertimento in F -IV- Finale: Presto
EXTD=
EXTT0=
EXTT1=
EXTT2=
EXTT3=
EXTT4=
EXTT5=
EXTT6=
EXTT7=
EXTT8=
EXTT9=
EXTT10=
EXTT11=
EXTT12=
EXTT13=
EXTT14=
EXTT15=
EXTT16=
EXTT17=
EXTT18=
EXTT19=
EXTT20=
EXTT21=
EXTT22=
EXTT23=
EXTT24=
EXTT25=
EXTT26=
EXTT27=
EXTT28=
EXTT29=
EXTT30=
EXTT31=
EXTT32=
PLAYORDER=
